<svg version="1.1" xmlns="http://www.w3.org/2000/svg" viewBox="0 0 701.57636797788 973.4590926984149" width="1403.15273595576" height="1946.9181853968298">
  <!-- svg-source:excalidraw -->
  
  <defs>
    <style class="style-fonts">
      @font-face {
        font-family: "Virgil";
        src: url("https://excalidraw.com/Virgil.woff2");
      }
      @font-face {
        font-family: "Cascadia";
        src: url("https://excalidraw.com/Cascadia.woff2");
      }
    </style>
  </defs>
  <rect x="0" y="0" width="701.57636797788" height="973.4590926984149" fill="#ffffff"></rect><g stroke-linecap="round" transform="translate(14.590120711231634 80.00973655995762) rotate(0 336.13450272443 436.50524086695384)"><path d="M0 0 C154.73 0, 309.46 0, 672.27 0 M0 0 C136.03 0, 272.07 0, 672.27 0 M672.27 0 C672.27 250.64, 672.27 501.28, 672.27 873.01 M672.27 0 C672.27 329.1, 672.27 658.19, 672.27 873.01 M672.27 873.01 C490.75 873.01, 309.24 873.01, 0 873.01 M672.27 873.01 C514.77 873.01, 357.26 873.01, 0 873.01 M0 873.01 C0 663.46, 0 453.91, 0 0 M0 873.01 C0 694.04, 0 515.07, 0 0" stroke="#000000" stroke-width="2" fill="none"></path></g><g stroke-linecap="round"><g transform="translate(16.854013461249338 133.0877232843468) rotate(0 337.3611772583153 -0.5786385910820684)"><path d="M0 0 C166.53 -0.29, 333.07 -0.57, 674.72 -1.16 M0 0 C179.93 -0.31, 359.86 -0.62, 674.72 -1.16" stroke="#000000" stroke-width="2" fill="none"></path></g></g><mask></mask><g stroke-linecap="round"><g transform="translate(15.22898169729308 867.6043612628794) rotate(0 335.8607135243832 -0.3800030837454642)"><path d="M0 0 C250.19 -0.28, 500.38 -0.57, 671.72 -0.76 M0 0 C170.23 -0.19, 340.46 -0.39, 671.72 -0.76" stroke="#000000" stroke-width="2" fill="none"></path></g></g><mask></mask><g transform="translate(293.42186514066464 95.66306690904867) rotate(0 39.849609375 13.607657067400964)"><text x="0" y="0" font-family="Cascadia, Segoe UI Emoji" font-size="22.67942844566827px" fill="#000000" text-anchor="start" style="white-space: pre;" direction="ltr" dominant-baseline="text-before-edge">header</text></g><g transform="translate(290.49645652365285 894.8832549117349) rotate(0 39.849609375 13.607657067400964)"><text x="0" y="0" font-family="Cascadia, Segoe UI Emoji" font-size="22.67942844566827px" fill="#000000" text-anchor="start" style="white-space: pre;" direction="ltr" dominant-baseline="text-before-edge">Footer</text></g><g transform="translate(10 10) rotate(0 229.95703125 30.391620482838476)"><text x="0" y="0" font-family="Cascadia, Segoe UI Emoji" font-size="25.326350402365403px" fill="#000000" text-anchor="start" style="white-space: pre;" direction="ltr" dominant-baseline="text-before-edge">browser viewport</text><text x="0" y="30.391620482838483" font-family="Cascadia, Segoe UI Emoji" font-size="25.326350402365403px" fill="#000000" text-anchor="start" style="white-space: pre;" direction="ltr" dominant-baseline="text-before-edge">(larger than content max-widht)</text></g><g stroke-linecap="round" transform="translate(20.36642706582677 139.48210521584014) rotate(0 329.9713398884999 360.18386112158976)"><path d="M0 0 C138.34 0, 276.67 0, 659.94 0 M0 0 C177.34 0, 354.69 0, 659.94 0 M659.94 0 C659.94 151.29, 659.94 302.59, 659.94 720.37 M659.94 0 C659.94 209.27, 659.94 418.55, 659.94 720.37 M659.94 720.37 C414.5 720.37, 169.05 720.37, 0 720.37 M659.94 720.37 C441.98 720.37, 224.02 720.37, 0 720.37 M0 720.37 C0 445.13, 0 169.89, 0 0 M0 720.37 C0 501.68, 0 282.99, 0 0" stroke="#1971c2" stroke-width="1" fill="none"></path></g><g transform="translate(26.2574416625431 142.91253449296778) rotate(0 65.625 9.599999999999994)"><text x="0" y="0" font-family="Cascadia, Segoe UI Emoji" font-size="16px" fill="#1971c2" text-anchor="start" style="white-space: pre;" direction="ltr" dominant-baseline="text-before-edge">Root Container</text></g><g stroke-linecap="round" transform="translate(27.753588782311567 185.858000440647) rotate(0 321.48781672078246 140.3461268508999)"><path d="M0 0 C252.9 0, 505.79 0, 642.98 0 M0 0 C157.07 0, 314.15 0, 642.98 0 M642.98 0 C642.98 93.4, 642.98 186.8, 642.98 280.69 M642.98 0 C642.98 79.88, 642.98 159.77, 642.98 280.69 M642.98 280.69 C468.91 280.69, 294.85 280.69, 0 280.69 M642.98 280.69 C427.72 280.69, 212.47 280.69, 0 280.69 M0 280.69 C0 206.75, 0 132.81, 0 0 M0 280.69 C0 168.75, 0 56.81, 0 0" stroke="#e03131" stroke-width="1" fill="none"></path></g><g transform="translate(32.685421150539696 195.2301071490337) rotate(0 79.6875 9.599999999999994)"><text x="0" y="0" font-family="Cascadia, Segoe UI Emoji" font-size="16px" fill="#e03131" text-anchor="start" style="white-space: pre;" direction="ltr" dominant-baseline="text-before-edge">Section Container</text></g><g stroke-linecap="round" transform="translate(444.12294718574447 243.53574542318836) rotate(0 62.81360995613113 66.68656613840929)"><path d="M0 0 C44.49 0, 88.97 0, 125.63 0 M0 0 C28.43 0, 56.85 0, 125.63 0 M125.63 0 C125.63 29.03, 125.63 58.06, 125.63 133.37 M125.63 0 C125.63 39.4, 125.63 78.8, 125.63 133.37 M125.63 133.37 C76.87 133.37, 28.12 133.37, 0 133.37 M125.63 133.37 C88.97 133.37, 52.3 133.37, 0 133.37 M0 133.37 C0 97.65, 0 61.93, 0 0 M0 133.37 C0 84.63, 0 35.89, 0 0" stroke="#f08c00" stroke-width="2" fill="none"></path></g><g stroke-linecap="round" transform="translate(116.96233076124372 252.33493092929706) rotate(0 145.42559240952346 8.077027964673704)"><path d="M0 0 C92.38 0, 184.75 0, 290.85 0 M0 0 C63.33 0, 126.65 0, 290.85 0 M290.85 0 C290.85 4.84, 290.85 9.68, 290.85 16.15 M290.85 0 C290.85 4.66, 290.85 9.31, 290.85 16.15 M290.85 16.15 C197.33 16.15, 103.81 16.15, 0 16.15 M290.85 16.15 C222.72 16.15, 154.58 16.15, 0 16.15 M0 16.15 C0 10.29, 0 4.42, 0 0 M0 16.15 C0 11.94, 0 7.72, 0 0" stroke="#f08c00" stroke-width="2" fill="none"></path></g><g stroke-linecap="round" transform="translate(115.66583272253149 279.49419953912104) rotate(0 155.62778152585258 7.263746175576983)"><path d="M0 0 C122.76 0, 245.51 0, 311.26 0 M0 0 C69.95 0, 139.9 0, 311.26 0 M311.26 0 C311.26 4.16, 311.26 8.32, 311.26 14.53 M311.26 0 C311.26 3.67, 311.26 7.34, 311.26 14.53 M311.26 14.53 C233.72 14.53, 156.19 14.53, 0 14.53 M311.26 14.53 C241.07 14.53, 170.87 14.53, 0 14.53 M0 14.53 C0 10.19, 0 5.85, 0 0 M0 14.53 C0 11.07, 0 7.61, 0 0" stroke="#f08c00" stroke-width="2" fill="none"></path></g><g stroke-linecap="round" transform="translate(116.31808857801423 308.0822476512314) rotate(0 116.84805454990226 6.880327038348298)"><path d="M0 0 C78.12 0, 156.23 0, 233.7 0 M0 0 C52.75 0, 105.5 0, 233.7 0 M233.7 0 C233.7 3.92, 233.7 7.83, 233.7 13.76 M233.7 0 C233.7 5.49, 233.7 10.99, 233.7 13.76 M233.7 13.76 C157.09 13.76, 80.48 13.76, 0 13.76 M233.7 13.76 C149.92 13.76, 66.14 13.76, 0 13.76 M0 13.76 C0 9.43, 0 5.09, 0 0 M0 13.76 C0 9.22, 0 4.68, 0 0" stroke="#f08c00" stroke-width="2" fill="none"></path></g><g stroke-linecap="round" transform="translate(26.639405030865873 476.3860350607559) rotate(0 322.9584298120927 140.3461268508999)"><path d="M0 0 C229.32 0, 458.65 0, 645.92 0 M0 0 C174.76 0, 349.51 0, 645.92 0 M645.92 0 C645.92 59.93, 645.92 119.86, 645.92 280.69 M645.92 0 C645.92 62.02, 645.92 124.03, 645.92 280.69 M645.92 280.69 C398.66 280.69, 151.41 280.69, 0 280.69 M645.92 280.69 C463.66 280.69, 281.4 280.69, 0 280.69 M0 280.69 C0 199.21, 0 117.73, 0 0 M0 280.69 C0 174.26, 0 67.82, 0 0" stroke="#e03131" stroke-width="1" fill="none"></path></g><g transform="translate(31.976341722669076 484.7119837035462) rotate(0 79.6875 9.600000000000023)"><text x="0" y="0" font-family="Cascadia, Segoe UI Emoji" font-size="16px" fill="#e03131" text-anchor="start" style="white-space: pre;" direction="ltr" dominant-baseline="text-before-edge">Section Container</text></g><g stroke-linecap="round"><g transform="translate(576.1967847524284 77.14282006620334) rotate(0 1.9672673106987304 443.15813631610575)"><path d="M0 0 C1.32 296.57, 2.63 593.14, 3.93 886.32" stroke="#1e1e1e" stroke-width="2.5" fill="none" stroke-dasharray="1.5 8"></path></g></g><mask></mask><g stroke-linecap="round"><g transform="translate(101.23156493712804 75.0098584481587) rotate(0 1.9672673106987304 443.15813631610575)"><path d="M0 0 C0.99 223.13, 1.98 446.26, 3.93 886.32" stroke="#1e1e1e" stroke-width="2.5" fill="none" stroke-dasharray="1.5 8"></path></g></g><mask></mask><g stroke-linecap="round" transform="translate(105.98949845679874 217.9031018334182) rotate(0 234.1513539853333 99.3981159570591)"><path d="M0 0 C166.04 0, 332.08 0, 468.3 0 M0 0 C94.65 0, 189.31 0, 468.3 0 M468.3 0 C468.3 43.88, 468.3 87.76, 468.3 198.8 M468.3 0 C468.3 46, 468.3 92, 468.3 198.8 M468.3 198.8 C333.7 198.8, 199.1 198.8, 0 198.8 M468.3 198.8 C339.62 198.8, 210.93 198.8, 0 198.8 M0 198.8 C0 147.39, 0 95.99, 0 0 M0 198.8 C0 147.97, 0 97.14, 0 0" stroke="#f08c00" stroke-width="1" fill="none"></path></g><g transform="translate(111.03651489024696 221.83178354719723) rotate(0 42.1875 9.599999999999994)"><text x="0" y="0" font-family="Cascadia, Segoe UI Emoji" font-size="16px" fill="#f08c00" text-anchor="start" style="white-space: pre;" direction="ltr" dominant-baseline="text-before-edge">Container</text></g><g stroke-linecap="round" transform="translate(129.52210354874455 547.0725441648776) rotate(0 66.47901974526845 69.21138158715564)"><path d="M0 0 C45.09 0, 90.19 0, 132.96 0 M0 0 C50.33 0, 100.65 0, 132.96 0 M132.96 0 C132.96 34.7, 132.96 69.4, 132.96 138.42 M132.96 0 C132.96 51.53, 132.96 103.07, 132.96 138.42 M132.96 138.42 C80.91 138.42, 28.87 138.42, 0 138.42 M132.96 138.42 C82.49 138.42, 32.01 138.42, 0 138.42 M0 138.42 C0 88.71, 0 39, 0 0 M0 138.42 C0 92.73, 0 47.04, 0 0" stroke="#f08c00" stroke-width="2" fill="none"></path></g><g stroke-linecap="round" transform="translate(107.65261866382946 515.3715460559442) rotate(0 233.2264758625344 99.39811595705908)"><path d="M0 0 C96.72 0, 193.45 0, 466.45 0 M0 0 C169.32 0, 338.63 0, 466.45 0 M466.45 0 C466.45 59.26, 466.45 118.52, 466.45 198.8 M466.45 0 C466.45 41.32, 466.45 82.65, 466.45 198.8 M466.45 198.8 C335.61 198.8, 204.77 198.8, 0 198.8 M466.45 198.8 C296.67 198.8, 126.89 198.8, 0 198.8 M0 198.8 C0 135.29, 0 71.78, 0 0 M0 198.8 C0 155.3, 0 111.81, 0 0" stroke="#f08c00" stroke-width="1" fill="none"></path></g><g transform="translate(111.03165983734743 518.3129924755235) rotate(0 42.1875 9.600000000000023)"><text x="0" y="0" font-family="Cascadia, Segoe UI Emoji" font-size="16px" fill="#f08c00" text-anchor="start" style="white-space: pre;" direction="ltr" dominant-baseline="text-before-edge">Container</text></g><g stroke-linecap="round" transform="translate(415.89692709144225 546.5553831402485) rotate(0 66.47901974526846 69.21138158715564)"><path d="M0 0 C35.21 0, 70.41 0, 132.96 0 M0 0 C43.48 0, 86.97 0, 132.96 0 M132.96 0 C132.96 35.81, 132.96 71.63, 132.96 138.42 M132.96 0 C132.96 37.17, 132.96 74.35, 132.96 138.42 M132.96 138.42 C81.73 138.42, 30.49 138.42, 0 138.42 M132.96 138.42 C86.55 138.42, 40.15 138.42, 0 138.42 M0 138.42 C0 86.93, 0 35.43, 0 0 M0 138.42 C0 83.97, 0 29.51, 0 0" stroke="#f08c00" stroke-width="2" fill="none"></path></g><g stroke-linecap="round" transform="translate(275.35311572711345 547.0546636004713) rotate(0 66.47901974526845 69.21138158715564)"><path d="M0 0 C39.9 0, 79.79 0, 132.96 0 M0 0 C53.02 0, 106.03 0, 132.96 0 M132.96 0 C132.96 35.47, 132.96 70.95, 132.96 138.42 M132.96 0 C132.96 41.34, 132.96 82.68, 132.96 138.42 M132.96 138.42 C83.25 138.42, 33.54 138.42, 0 138.42 M132.96 138.42 C84.52 138.42, 36.09 138.42, 0 138.42 M0 138.42 C0 86.98, 0 35.54, 0 0 M0 138.42 C0 91.75, 0 45.09, 0 0" stroke="#f08c00" stroke-width="2" fill="none"></path></g><g stroke-linecap="round"><g transform="translate(114.61475294399565 818.5963979560761) rotate(0 232.7453686104992 0.44519277226174836)"><path d="M0 0 C172.89 0.33, 345.77 0.66, 465.49 0.89 M0 0 C174.77 0.33, 349.53 0.67, 465.49 0.89" stroke="#1e1e1e" stroke-width="4" fill="none"></path></g><g transform="translate(114.61475294399565 818.5963979560761) rotate(0 232.7453686104992 0.44519277226174836)"><path d="M465.49 0.89 L451.88 7.2 L451.91 -5.47 L465.49 0.89" stroke="none" stroke-width="0" fill="#1e1e1e" fill-rule="evenodd"></path><path d="M465.49 0.89 C460.44 3.24, 455.38 5.58, 451.88 7.2 M465.49 0.89 C460.38 3.26, 455.27 5.63, 451.88 7.2 M451.88 7.2 C451.89 3.02, 451.9 -1.16, 451.91 -5.47 M451.88 7.2 C451.89 2.48, 451.9 -2.25, 451.91 -5.47 M451.91 -5.47 C456.14 -3.49, 460.37 -1.51, 465.49 0.89 M451.91 -5.47 C457.27 -2.96, 462.64 -0.45, 465.49 0.89 M465.49 0.89 C465.49 0.89, 465.49 0.89, 465.49 0.89 M465.49 0.89 C465.49 0.89, 465.49 0.89, 465.49 0.89" stroke="#1e1e1e" stroke-width="4" fill="none"></path></g></g><mask></mask><g stroke-linecap="round"><g transform="translate(560.5619586199322 817.8281124692244) rotate(0 -227.42176940178433 0.04206076366824618)"><path d="M0 0 C-156.74 0.03, -313.48 0.06, -454.84 0.08 M0 0 C-94.69 0.02, -189.38 0.04, -454.84 0.08" stroke="#1e1e1e" stroke-width="4" fill="none"></path></g><g transform="translate(560.5619586199322 817.8281124692244) rotate(0 -227.42176940178433 0.04206076366824618)"><path d="M-454.84 0.08 L-441.25 -6.26 L-441.25 6.42 L-454.84 0.08" stroke="none" stroke-width="0" fill="#1e1e1e" fill-rule="evenodd"></path><path d="M-454.84 0.08 C-450.16 -2.1, -445.47 -4.29, -441.25 -6.26 M-454.84 0.08 C-452.01 -1.24, -449.18 -2.56, -441.25 -6.26 M-441.25 -6.26 C-441.25 -3.3, -441.25 -0.33, -441.25 6.42 M-441.25 -6.26 C-441.25 -3.51, -441.25 -0.76, -441.25 6.42 M-441.25 6.42 C-446.58 3.93, -451.92 1.45, -454.84 0.08 M-441.25 6.42 C-445.98 4.21, -450.71 2.01, -454.84 0.08 M-454.84 0.08 C-454.84 0.08, -454.84 0.08, -454.84 0.08 M-454.84 0.08 C-454.84 0.08, -454.84 0.08, -454.84 0.08" stroke="#1e1e1e" stroke-width="4" fill="none"></path></g></g><mask></mask><g transform="translate(248.1263498899359 786.0239876247972) rotate(0 73.828125 16.799999999999955)"><text x="0" y="0" font-family="Cascadia, Segoe UI Emoji" font-size="28px" fill="#1e1e1e" text-anchor="start" style="white-space: pre;" direction="ltr" dominant-baseline="text-before-edge">MAX WIDTH</text></g></svg>