<svg width="32" height="33" viewBox="0 0 32 33" fill="none" xmlns="http://www.w3.org/2000/svg">
    <path
        d="M16 9.55994C12.3333 9.55994 9.33334 12.5533 9.33334 16.2399C9.33334 19.5733 11.7733 22.3399 14.96 22.8399V18.1733H13.2667V16.2399H14.96V14.7666C14.96 13.0933 15.9533 12.1733 17.48 12.1733C18.2067 12.1733 18.9667 12.2999 18.9667 12.2999V13.9466H18.1267C17.3 13.9466 17.04 14.4599 17.04 14.9866V16.2399H18.8933L18.5933 18.1733H17.04V22.8399C18.611 22.5918 20.0415 21.7903 21.0733 20.58C22.1051 19.3697 22.6702 17.8304 22.6667 16.2399C22.6667 12.5533 19.6667 9.55994 16 9.55994Z"
        fill="white" />
    <circle cx="16" cy="16.2" r="15.5" stroke="white" stroke-opacity="0.25" />
</svg>