<svg width="32" height="33" viewBox="0 0 32 33" fill="none" xmlns="http://www.w3.org/2000/svg">
    <path
        d="M13.2 9.53333H18.8C20.9333 9.53333 22.6667 11.2667 22.6667 13.4V19C22.6667 20.0255 22.2593 21.009 21.5342 21.7341C20.809 22.4593 19.8255 22.8667 18.8 22.8667H13.2C11.0667 22.8667 9.33334 21.1333 9.33334 19V13.4C9.33334 12.3745 9.74072 11.391 10.4659 10.6658C11.191 9.94071 12.1745 9.53333 13.2 9.53333V9.53333ZM13.0667 10.8667C12.4302 10.8667 11.8197 11.1195 11.3696 11.5696C10.9195 12.0197 10.6667 12.6301 10.6667 13.2667V19.1333C10.6667 20.46 11.74 21.5333 13.0667 21.5333H18.9333C19.5699 21.5333 20.1803 21.2805 20.6304 20.8304C21.0805 20.3803 21.3333 19.7698 21.3333 19.1333V13.2667C21.3333 11.94 20.26 10.8667 18.9333 10.8667H13.0667ZM19.5 11.8667C19.721 11.8667 19.933 11.9545 20.0893 12.1107C20.2455 12.267 20.3333 12.479 20.3333 12.7C20.3333 12.921 20.2455 13.133 20.0893 13.2892C19.933 13.4455 19.721 13.5333 19.5 13.5333C19.279 13.5333 19.067 13.4455 18.9108 13.2892C18.7545 13.133 18.6667 12.921 18.6667 12.7C18.6667 12.479 18.7545 12.267 18.9108 12.1107C19.067 11.9545 19.279 11.8667 19.5 11.8667ZM16 12.8667C16.8841 12.8667 17.7319 13.2178 18.357 13.843C18.9822 14.4681 19.3333 15.3159 19.3333 16.2C19.3333 17.084 18.9822 17.9319 18.357 18.557C17.7319 19.1821 16.8841 19.5333 16 19.5333C15.116 19.5333 14.2681 19.1821 13.643 18.557C13.0179 17.9319 12.6667 17.084 12.6667 16.2C12.6667 15.3159 13.0179 14.4681 13.643 13.843C14.2681 13.2178 15.116 12.8667 16 12.8667V12.8667ZM16 14.2C15.4696 14.2 14.9609 14.4107 14.5858 14.7858C14.2107 15.1609 14 15.6696 14 16.2C14 16.7304 14.2107 17.2391 14.5858 17.6142C14.9609 17.9893 15.4696 18.2 16 18.2C16.5304 18.2 17.0392 17.9893 17.4142 17.6142C17.7893 17.2391 18 16.7304 18 16.2C18 15.6696 17.7893 15.1609 17.4142 14.7858C17.0392 14.4107 16.5304 14.2 16 14.2Z"
        fill="white" />
    <circle cx="16" cy="16.2" r="15.5" stroke="white" stroke-opacity="0.25" />
</svg>