<svg width="32" height="33" viewBox="0 0 32 33" fill="none" xmlns="http://www.w3.org/2000/svg">
    <path
        d="M20.6667 10.2C21.0203 10.2 21.3594 10.3404 21.6095 10.5905C21.8595 10.8405 22 11.1797 22 11.5333V20.8666C22 21.2202 21.8595 21.5594 21.6095 21.8094C21.3594 22.0595 21.0203 22.2 20.6667 22.2H11.3333C10.9797 22.2 10.6406 22.0595 10.3905 21.8094C10.1405 21.5594 10 21.2202 10 20.8666V11.5333C10 11.1797 10.1405 10.8405 10.3905 10.5905C10.6406 10.3404 10.9797 10.2 11.3333 10.2H20.6667ZM20.3333 20.5333V17C20.3333 16.4235 20.1044 15.8708 19.6968 15.4632C19.2892 15.0556 18.7364 14.8266 18.16 14.8266C17.5933 14.8266 16.9333 15.1733 16.6133 15.6933V14.9533H14.7533V20.5333H16.6133V17.2466C16.6133 16.7333 17.0267 16.3133 17.54 16.3133C17.7875 16.3133 18.0249 16.4116 18.2 16.5867C18.375 16.7617 18.4733 16.9991 18.4733 17.2466V20.5333H20.3333ZM12.5867 13.9066C12.8837 13.9066 13.1686 13.7886 13.3786 13.5786C13.5887 13.3685 13.7067 13.0837 13.7067 12.7866C13.7067 12.1666 13.2067 11.66 12.5867 11.66C12.2879 11.66 12.0013 11.7787 11.79 11.9899C11.5787 12.2012 11.46 12.4878 11.46 12.7866C11.46 13.4066 11.9667 13.9066 12.5867 13.9066ZM13.5133 20.5333V14.9533H11.6667V20.5333H13.5133Z"
        fill="white" />
    <circle cx="16" cy="16.2" r="15.5" stroke="white" stroke-opacity="0.25" />
</svg>