<svg width="32" height="33" viewBox="0 0 32 33" fill="none" xmlns="http://www.w3.org/2000/svg">
    <path
        d="M22.9733 12.1999C22.46 12.4332 21.9067 12.5866 21.3333 12.6599C21.92 12.3066 22.3733 11.7466 22.5867 11.0732C22.0333 11.4066 21.42 11.6399 20.7733 11.7732C20.2467 11.1999 19.5067 10.8666 18.6667 10.8666C17.1 10.8666 15.82 12.1466 15.82 13.7266C15.82 13.9532 15.8467 14.1732 15.8933 14.3799C13.52 14.2599 11.4067 13.1199 10 11.3932C9.75334 11.8132 9.61334 12.3066 9.61334 12.8266C9.61334 13.8199 10.1133 14.6999 10.8867 15.1999C10.4133 15.1999 9.97334 15.0666 9.58667 14.8666V14.8866C9.58667 16.2732 10.5733 17.4332 11.88 17.6932C11.4605 17.808 11.0201 17.824 10.5933 17.7399C10.7744 18.3082 11.129 18.8055 11.6073 19.1619C12.0857 19.5182 12.6636 19.7157 13.26 19.7266C12.2491 20.5269 10.996 20.9595 9.70667 20.9532C9.48001 20.9532 9.25334 20.9399 9.02667 20.9132C10.2933 21.7266 11.8 22.1999 13.4133 22.1999C18.6667 22.1999 21.5533 17.8399 21.5533 14.0599C21.5533 13.9332 21.5533 13.8132 21.5467 13.6866C22.1067 13.2866 22.5867 12.7799 22.9733 12.1999Z"
        fill="white" />
    <circle cx="16" cy="16.2" r="15.5" stroke="white" stroke-opacity="0.25" />
</svg>