<svg width="32" height="33" viewBox="0 0 32 33" fill="none" xmlns="http://www.w3.org/2000/svg">
    <path
        d="M14.6667 18.2L18.1267 16.2L14.6667 14.2V18.2ZM22.3733 12.98C22.46 13.2933 22.52 13.7133 22.56 14.2467C22.6067 14.78 22.6267 15.24 22.6267 15.64L22.6667 16.2C22.6667 17.66 22.56 18.7333 22.3733 19.42C22.2067 20.02 21.82 20.4067 21.22 20.5733C20.9067 20.66 20.3333 20.72 19.4533 20.76C18.5867 20.8067 17.7933 20.8267 17.06 20.8267L16 20.8667C13.2067 20.8667 11.4667 20.76 10.78 20.5733C10.18 20.4067 9.79334 20.02 9.62668 19.42C9.54001 19.1067 9.48001 18.6867 9.44001 18.1533C9.39334 17.62 9.37334 17.16 9.37334 16.76L9.33334 16.2C9.33334 14.74 9.44001 13.6667 9.62668 12.98C9.79334 12.38 10.18 11.9933 10.78 11.8267C11.0933 11.74 11.6667 11.68 12.5467 11.64C13.4133 11.5933 14.2067 11.5733 14.94 11.5733L16 11.5333C18.7933 11.5333 20.5333 11.64 21.22 11.8267C21.82 11.9933 22.2067 12.38 22.3733 12.98Z"
        fill="white" />
    <circle cx="16" cy="16.2" r="15.5" stroke="white" stroke-opacity="0.25" />
</svg>