<svg width="87" height="35" viewBox="0 0 87 35" fill="none" xmlns="http://www.w3.org/2000/svg">
    <path
        d="M66.9834 0.425598V17.1873L66.7657 17.364L66.548 17.5406L66.3394 17.726L66.1398 17.9115L65.9494 18.0969L65.7589 18.2912L65.5775 18.4855L65.3961 18.6798V0.425598H46.3219V15.686H44.7437V0.425598H25.6695V15.7125H24.0913V0.425598H5.01708V17.8497L0.146484 33.6488H4.42753L6.57712 26.6544H7.19388L10.7493 33.6488H15.9192L12.4726 26.6544H20.291L18.1232 33.6488H22.7943L24.9348 26.6721H25.9688V26.6544H27.4381H27.556H36.3812L34.3132 33.6311H39.0296L41.0341 26.6544H43.1565L43.2108 33.6311H47.1654L51.7094 26.6544H54.6844L53.1425 33.6311H57.7863L59.301 26.6544H61.9857L61.9676 27.0518L61.9772 27.458L61.9953 27.8466L62.0316 28.2352L62.0588 28.4206L62.086 28.6061L62.1222 28.7916L62.1585 28.977L62.2038 29.1625L62.2491 29.3391L62.3035 29.5157L62.3578 29.6924L62.4214 29.869L62.4849 30.0368L62.5574 30.2046L62.6301 30.3635L62.7117 30.5313L62.7934 30.6903L62.8841 30.8404L62.9749 30.9994L63.0747 31.1495L63.1835 31.2908L63.2924 31.4409L63.4103 31.5734L63.5282 31.7147L63.6461 31.8472L63.7821 31.9796L63.9182 32.1033L64.0905 32.2446L64.2628 32.3859L64.4442 32.5183L64.6347 32.642L64.8252 32.7656L65.0156 32.8804L65.2152 32.9775L65.4238 33.0835L65.6233 33.1718L65.832 33.2601L66.0406 33.3396L66.2582 33.4191L66.4759 33.4898L66.6936 33.5516L66.9113 33.6134L67.129 33.6664L67.5643 33.7635L68.0088 33.8342L68.4441 33.896L68.8795 33.949L69.3058 33.9843L69.723 34.002L70.1311 34.0197H70.5211L71.0472 34.0113L71.5733 34.003L72.1084 33.9765L72.6435 33.95L73.1786 33.9058L73.7138 33.8615L74.2489 33.8086L74.784 33.7467L75.3282 33.676L75.8724 33.5965L76.4166 33.5082L76.9608 33.4199L77.505 33.3228L78.0492 33.2169L78.5934 33.1109L79.1467 32.9873L80.7612 26.6553H86.0581V0.426415H66.9838L66.9834 0.425598ZM6.78573 26.0009L6.81292 25.9038L6.87646 26.0009H6.78573ZM23.402 16.6045L23.1299 17.4964L20.5903 25.7095L20.4905 26.0009H12.1461L11.5021 24.6586L20.4905 15.7125H14.7129L7.68364 23.0866L9.96021 15.7125H5.69731V1.08795H23.4019V16.6045H23.402ZM28.327 23.5458L28.1909 23.5542L28.064 23.5626L27.9279 23.571H27.7828H27.5923H27.4291L27.2749 23.5793H27.1297L25.996 23.571L26.5221 21.6811L26.7669 20.745L27.3656 18.546H27.556H27.7556L27.9461 18.5376H28.1275H29.0072L29.5424 18.546L30.0322 18.5637L30.2498 18.5721L30.4584 18.5898L30.658 18.6163L30.8394 18.6428L31.0026 18.6693L31.1568 18.7135L31.302 18.7577L31.4289 18.8107L31.5378 18.8637L31.6376 18.9344L31.7283 19.0051L31.8008 19.0934L31.8461 19.1641L31.8824 19.2348L31.9186 19.3143L31.9458 19.4026L31.9639 19.4997L31.9735 19.5968V19.7028V19.8176L31.9639 19.9412L31.9554 20.0648L31.9282 20.2062L31.901 20.3475L31.8194 20.6477L31.7196 20.9833L31.6198 21.2659L31.5109 21.5397L31.393 21.7958L31.266 22.0342L31.2025 22.1402L31.1389 22.2462L31.0663 22.3521L30.9847 22.4492L30.903 22.5463L30.8213 22.6346L30.7306 22.7229L30.6398 22.8024L30.5401 22.8731L30.4403 22.9527L30.3314 23.0144L30.2135 23.0852L30.0956 23.147L29.9686 23.2L29.8416 23.253L29.7056 23.2972L29.5605 23.3502L29.4063 23.3855L29.243 23.4208L29.0798 23.4561L28.8983 23.4826L28.717 23.5091L28.5265 23.5268L28.3269 23.5445L28.327 23.5458ZM41.2245 26.0009L43.0839 19.5541L43.1565 26.0009H41.2246H41.2245ZM44.0544 15.686H39.6282L36.5807 26.0009H31.8824L32.1001 25.9126L32.3178 25.8243L32.5264 25.736L32.735 25.6389L32.9346 25.5418L33.125 25.427L33.3155 25.321L33.4969 25.2062L33.6783 25.0826L33.8506 24.959L34.0139 24.8353L34.1772 24.694L34.3313 24.5615L34.4765 24.4114L34.6216 24.2701L34.7576 24.1112L34.8937 23.961L35.0207 23.7932L35.1386 23.6343L35.2565 23.4576L35.3653 23.281L35.4651 23.1044L35.5649 22.9189L35.6556 22.7246L35.7464 22.5304L35.8281 22.3361L35.9006 22.1329L35.9732 21.921L36.0275 21.7091L36.0911 21.4971L36.1364 21.2675L36.1817 21.0467L36.2453 20.6935L36.2996 20.3579L36.3359 20.0399L36.3631 19.7397L36.3727 19.4394L36.3631 19.1657L36.3545 18.8919L36.3183 18.6358L36.282 18.3973L36.2185 18.1589L36.155 17.9381L36.0642 17.7262L35.9644 17.523L35.8556 17.3199L35.7286 17.1345L35.5835 16.9578L35.4656 16.8342L35.3477 16.7106L35.2207 16.6046L35.0846 16.5075L34.9395 16.4104L34.7944 16.3221L34.6402 16.2426L34.486 16.1719L34.3228 16.1012L34.1595 16.0482L33.9872 15.9952L33.8148 15.9422L33.6334 15.898L33.452 15.8627L33.2706 15.8274L33.0802 15.8009L32.6901 15.7479L32.3001 15.7214L31.9011 15.6949L31.4929 15.6865H30.6766H29.8694H29.6154H29.1619H28.5996H27.9737H27.3661H26.8491H26.4863H26.3502V1.08842H44.0549V15.6865L44.0544 15.686ZM54.8114 26.0009H52.1539L56.181 19.819L54.8114 26.0009ZM64.7068 15.9774L64.6972 19.5541L64.4704 19.8632L64.2618 20.1811L64.0532 20.4991L63.8628 20.817L63.6813 21.1349L63.5 21.4617L63.3458 21.7796L63.1916 22.0975L63.0464 22.4066L62.9195 22.7245L62.7925 23.0336L62.6837 23.3339L62.5839 23.6341L62.4931 23.9256L62.4114 24.2082L62.3388 24.4908L62.2935 24.6762L62.2482 24.8705L62.2029 25.056L62.1666 25.2503L62.1304 25.4357L62.1032 25.6212L62.076 25.8066L62.0579 26.0009H59.4548L61.677 15.7125L54.1851 15.7041L47.4824 26.0014H46.9926V1.0884H64.7063V15.9779L64.7068 15.9774ZM74.9196 30.2134L74.5477 30.2752L74.1668 30.3282L73.7859 30.3812L73.414 30.4254L73.0421 30.4607L72.6702 30.4872L72.3074 30.5049H71.9446H71.7088L71.473 30.4966L71.2463 30.4789L71.0195 30.4524L70.8018 30.4171L70.5932 30.3818L70.3846 30.3376L70.1851 30.2845L69.9946 30.2228L69.8041 30.1609L69.6227 30.0814L69.4504 30.0019L69.2781 29.9048L69.1148 29.8077L68.9606 29.7018L68.8155 29.5958L68.6704 29.4722L68.5434 29.3397L68.4164 29.2072L68.2985 29.0571L68.1897 28.907L68.0899 28.7392L67.9991 28.5714L67.9084 28.3947L67.8358 28.2093L67.7722 28.0062L67.7179 27.8031L67.6635 27.5911L67.6272 27.3703L67.6001 27.1407L67.5819 26.9023L67.5723 26.655H75.826L74.919 30.214L74.9196 30.2134ZM85.3864 26.0009H80.924L81.6586 23.1219H72.7156L71.9809 26.0009H67.6545V25.4092L67.7089 25.162L67.7542 24.9147L67.8086 24.6497L67.863 24.3848L67.9447 24.0934L68.0263 23.8019L68.1171 23.5105L68.2169 23.2279L68.3257 22.9453L68.4436 22.6627L68.5706 22.3889L68.6976 22.1152L68.8427 21.8414L68.9878 21.5853L69.142 21.3204L69.3143 21.0731L69.4867 20.8258L69.659 20.5874L69.8495 20.3577L70.049 20.137L70.2576 19.925L70.4662 19.7307L70.693 19.5364L70.9197 19.351L71.1555 19.1832L71.4095 19.0242L71.6635 18.8829L71.9265 18.7505L72.1986 18.6268L72.4798 18.5208L72.77 18.4325L73.0693 18.3618L73.3777 18.3L73.6951 18.2558L74.0217 18.2293L74.3573 18.221L74.6203 18.2293L74.8833 18.247L75.1463 18.2823L75.4003 18.3353L75.5273 18.3706L75.6452 18.4059L75.7631 18.4412L75.8719 18.4942L75.9808 18.5384L76.0896 18.6002L76.1894 18.662L76.2892 18.7238L76.38 18.8033L76.4707 18.8829L76.5524 18.9624L76.634 19.0595L76.7066 19.1478L76.7702 19.2537L76.8246 19.3685L76.8789 19.4833L76.9243 19.607L76.9605 19.7394L76.9877 19.8719L77.0149 20.022L77.0245 20.1722V20.3311V20.4989L77.0063 20.6756H82.3395L82.4212 20.3135L82.4938 19.8984L82.5301 19.6776L82.5482 19.4392L82.5663 19.2007V18.9535L82.5578 18.6974L82.5306 18.4324L82.5034 18.3088L82.4853 18.1763L82.449 18.0438L82.4128 17.9114L82.3675 17.7701L82.3221 17.6376L82.2678 17.5051L82.2042 17.3727L82.1407 17.2402L82.059 17.1077L81.9773 16.9753L81.8866 16.8428L81.7777 16.7015L81.6598 16.569L81.5419 16.4366L81.4149 16.3129L81.2789 16.1893L81.1338 16.0745L80.9887 15.9685L80.8345 15.8625L80.6712 15.7566L80.5079 15.6682L80.3356 15.5799L80.1542 15.4916L79.9728 15.4121L79.7823 15.3326L79.5828 15.2619L79.3833 15.1912L79.1837 15.1294L78.9661 15.0764L78.7574 15.0234L78.5307 14.9704L78.3039 14.9262L78.0772 14.882L77.8414 14.8467L77.5965 14.8202L77.0976 14.7672L76.5897 14.723L76.0546 14.7053L75.5104 14.6969L75.1022 14.7053L74.6759 14.7137L74.2315 14.7402L73.7689 14.7755L73.2882 14.8285L72.7984 14.8903L72.2996 14.9698L71.7917 15.0758L71.5377 15.1288L71.2747 15.1906L71.0207 15.2613L70.7577 15.332L70.4947 15.4115L70.2316 15.4998L69.9686 15.5881L69.7146 15.6852L69.4516 15.7912L69.1886 15.906L68.9346 16.0208L68.6716 16.1444L68.4176 16.2769L68.1637 16.4182L67.9097 16.5595L67.6558 16.7184V1.08712H85.3876V26.0001L85.3864 26.0009Z"
        fill="white" />
</svg>